<svg xmlns="http://www.w3.org/2000/svg" width="512" height="512" viewBox="0 0 774 774">
  <path fill="#721d16" d="M640 91H537V24c0-14-11-24-24-24l-3 1-2-1H262c-14 0-24 10-24 24v67H134c-30 0-53 23-53 53v86h46v492c0 30 23 52 52 52h416c30 0 53-22 53-52V230h45v-86c0-30-23-53-53-53zM286 48h203v43H286V48zm313 674c0 3-1 4-4 4H179c-3 0-4-1-4-4V230h424v492zm46-540H130v-38c0-3 1-5 4-5h506c3 0 5 2 5 5v38z" class="active-path" />
  <path fill="#721d16" d="M475 287h48v397h-48zM363 287h48v397h-48zM252 287h48v397h-48z"/>
</svg>
